HIERARCHY
ROOT root
{
	OFFSET	0	13.1	24.9
	CHANNELS 6  Xposition Yposition Zposition Xrotation Yrotation Zrotation
	JOINT spine_1
	{
		OFFSET	0	9.99999	0
		CHANNELS 3  Xrotation Yrotation Zrotation
		JOINT spine_2
		{
			OFFSET	0	112	-10
			CHANNELS 3  Xrotation Yrotation Zrotation
			JOINT spine_3
			{
				OFFSET	0	206.5	19.3
				CHANNELS 3  Xrotation Yrotation Zrotation
				JOINT spine_4
				{
					OFFSET	0	110.4	14.6
					CHANNELS 3  Xrotation Yrotation Zrotation
					JOINT neck_1
					{
						OFFSET	0	71.8	-50.3
						CHANNELS 3  Xrotation Yrotation Zrotation
						JOINT neck_2
						{
							OFFSET	0	86.2	-25.8
							CHANNELS 3  Xrotation Yrotation Zrotation
							JOINT head_ee
							{
								OFFSET	0	179.8	-8.7
								CHANNELS 3  Xrotation Yrotation Zrotation
								End Site
								{
									OFFSET	1	0	0
								}
							}
						}
					}
					JOINT left_clavicle
					{
						OFFSET	-43.2	22.4	-70.8
						CHANNELS 3  Xrotation Yrotation Zrotation
						JOINT left_shoulder
						{
							OFFSET	-93.9	-5.79999	48.7
							CHANNELS 3  Xrotation Yrotation Zrotation
							JOINT left_elbow
							{
								OFFSET	-291.4	-30.8	15.2
								CHANNELS 3  Xrotation Yrotation Zrotation
								JOINT left_lowarm_twist
								{
									OFFSET	-110.7	-3.89999	13.6
									CHANNELS 3  Xrotation Yrotation Zrotation
									JOINT left_hand
									{
										OFFSET	-110.7	-3.89999	13.6
										CHANNELS 3  Xrotation Yrotation Zrotation
										JOINT left_ee
										{
											OFFSET	-80.8	-5.10001	12.1
											CHANNELS 3  Xrotation Yrotation Zrotation
											End Site
											{
												OFFSET	1	0	0
											}
										}
									}
								}
							}
						}
					}
					JOINT right_clavicle
					{
						OFFSET	43.2	22.4	-70.8
						CHANNELS 3  Xrotation Yrotation Zrotation
						JOINT right_shoulder
						{
							OFFSET	93.9	-5.79999	48.7
							CHANNELS 3  Xrotation Yrotation Zrotation
							JOINT right_elbow
							{
								OFFSET	291.4	-30.8	15.2
								CHANNELS 3  Xrotation Yrotation Zrotation
								JOINT right_lowarm_twist
								{
									OFFSET	110.7	-3.89999	13.6
									CHANNELS 3  Xrotation Yrotation Zrotation
									JOINT right_hand
									{
										OFFSET	110.7	-3.89999	13.6
										CHANNELS 3  Xrotation Yrotation Zrotation
										JOINT right_ee
										{
											OFFSET	80.8	-5.10001	12.1
											CHANNELS 3  Xrotation Yrotation Zrotation
											End Site
											{
												OFFSET	1	0	0
											}
										}
									}
								}
							}
						}
					}
				}
			}
		}
	}
	JOINT left_hip
	{
		OFFSET	-82.8	-127.5	0.300001
		CHANNELS 3  Xrotation Yrotation Zrotation
		JOINT left_knee
		{
			OFFSET	-28.2	-396.7	2.2
			CHANNELS 3  Xrotation Yrotation Zrotation
			JOINT left_ankle
			{
				OFFSET	-11.7	-411.3	35.4
				CHANNELS 3  Xrotation Yrotation Zrotation
				JOINT left_toes
				{
					OFFSET	0	-60	-88.6
					CHANNELS 3  Xrotation Yrotation Zrotation
					JOINT left_foot_ee
					{
						OFFSET	-22.5	-16.5	-42.2
						CHANNELS 3  Xrotation Yrotation Zrotation
						End Site
						{
							OFFSET	1	0	0
						}
					}
				}
			}
		}
	}
	JOINT right_hip
	{
		OFFSET	82.8	-127.5	0.300001
		CHANNELS 3  Xrotation Yrotation Zrotation
		JOINT right_knee
		{
			OFFSET	28.2	-396.7	2.2
			CHANNELS 3  Xrotation Yrotation Zrotation
			JOINT right_ankle
			{
				OFFSET	11.7	-411.3	35.4
				CHANNELS 3  Xrotation Yrotation Zrotation
				JOINT right_toes
				{
					OFFSET	0	-60	-88.6
					CHANNELS 3  Xrotation Yrotation Zrotation
					JOINT right_foot_ee
					{
						OFFSET	22.5	-16.5	-42.2
						CHANNELS 3  Xrotation Yrotation Zrotation
						End Site
						{
							OFFSET	1	0	0
						}
					}
				}
			}
		}
	}
}
MOTION
Frames: 5
Frame Time: 0.02
3177.02 653.055 -1669.29 -18.0764914381 21.6744501149 3.31805712104 6.48545 0.479688 2.36938 6.48851 0.32799 2.39508 6.49824 0.0914058 2.41569 6.49041 0.471664 2.37099 -18.8279 4.01266 -2.46665 -18.9187 9.02904 -0.698323 -0.0 0.0 -0.0 -3.09967 23.8239 -1.45973 -22.7037 -16.7085 71.5087 0.698898 -19.0966 0.117562 -5.81972 -0.241041 0.703497 2.15674 26.6213 23.1313 -0.0 0.0 -0.0 11.9941 22.001 -23.7643 -24.4067 30.9063 -55.5544 1.59479 38.3063 -0.553934 0.592173 -0.0204879 0.0728542 -3.0302 -7.14306 16.9936 0.0 0.0 0.0 34.266 -43.6046 -0.594869 -7.30525 0.231124 1.09656 -2.22159 22.168 0.336275 -12.5626 0.0 0.0 -0.0 0.0 -0.0 10.8649 -0.0614001 6.61194 -14.622 -0.320924 -2.2149 31.158 -26.7154 4.28564 22.2412 -0.0 -0.0 0.0 0.0 0.0 
3160.61627188 655.195 -1685.03056202 -18.1164450952 21.1518147369 3.55157554492 6.43384 0.386177 2.31347 6.43679 0.238223 2.33334 6.44275 0.00577986 2.34546 6.43527 0.376028 2.31514 -18.6991 4.22128 -1.44562 -18.796 8.89342 0.326482 -0.0 0.0 -0.0 -2.90146 23.0238 -1.34555 -23.8008 -16.8206 71.2391 0.639253 -17.5714 0.0987991 -4.44114 -0.177492 0.53909 1.45964 25.6614 18.6643 -0.0 0.0 -0.0 11.3244 22.2005 -22.218 -22.4771 30.5375 -58.6986 1.54918 37.5007 -0.525914 -0.809273 0.0292163 -0.0992187 -3.10735 -8.23027 16.9386 0.0 0.0 0.0 34.6207 -44.1651 0.844966 -7.67217 0.239024 1.15231 -5.48109 28.0477 0.860483 -13.0518 0.0 0.0 -0.0 0.0 -0.0 10.3952 0.223682 6.82708 -15.4248 -0.322066 -2.33806 30.1261 -26.7364 4.16666 19.6599 -0.0 -0.0 0.0 0.0 0.0 
3145.4782076 653.159 -1708.89983036 -16.0638772494 22.1600346812 3.75134604519 6.03373 0.228887 2.32988 6.03674 0.0802079 2.33972 6.03659 -0.168786 2.335 6.02904 0.201999 2.33236 -16.1528 5.77626 -2.45979 -16.2936 12.4849 -0.267011 -0.0 0.0 -0.0 -2.11027 21.0769 -0.582836 -23.8268 -17.2277 70.8722 0.554335 -15.3552 0.074729 -2.25224 -0.0847809 0.275085 0.681083 19.6735 12.0794 -0.0 0.0 -0.0 10.1644 19.0911 -19.8348 -20.3141 31.4113 -61.8161 1.48059 36.2555 -0.484749 -1.49682 0.0551386 -0.183188 -3.02355 -9.25584 15.823 0.0 0.0 0.0 37.0757 -45.4579 4.46054 -15.6918 0.322063 2.37903 -8.26152 29.195 1.31201 -9.18342 0.0 0.0 -0.0 0.0 -0.0 10.8194 1.21769 6.06332 -22.373 -0.259907 -3.4017 29.4987 -26.7262 4.09276 17.3848 -0.0 -0.0 0.0 0.0 0.0 
3145.08376118 653.159 -1708.58249265 -16.1294570971 22.710434722 3.92318139886 6.03373 0.228887 2.32988 6.03674 0.0802079 2.33972 6.03659 -0.168786 2.335 6.02904 0.201999 2.33236 -16.1528 5.77626 -2.45979 -16.2936 12.4849 -0.267011 -0.0 0.0 -0.0 -2.11027 21.0769 -0.582836 -23.8268 -17.2277 70.8722 0.554335 -15.3552 0.074729 -2.25224 -0.0847809 0.275085 0.681083 19.6735 12.0794 -0.0 0.0 -0.0 10.1644 19.0911 -19.8348 -20.3141 31.4113 -61.8161 1.48059 36.2555 -0.484749 -1.49682 0.0551386 -0.183188 -3.02355 -9.25584 15.823 0.0 0.0 0.0 37.0757 -45.4579 4.46054 -15.6918 0.322063 2.37903 -8.26152 29.195 1.31201 -9.18342 0.0 0.0 -0.0 0.0 -0.0 10.8194 1.21769 6.06332 -22.373 -0.259907 -3.4017 29.4987 -26.7262 4.09276 17.3848 -0.0 -0.0 0.0 0.0 0.0 
3144.69770151 653.159 -1708.26553527 -16.1961856532 23.2533165887 4.09408545074 6.03373 0.228887 2.32988 6.03674 0.0802079 2.33972 6.03659 -0.168786 2.335 6.02904 0.201999 2.33236 -16.1528 5.77626 -2.45979 -16.2936 12.4849 -0.267011 -0.0 0.0 -0.0 -2.11027 21.0769 -0.582836 -23.8268 -17.2277 70.8722 0.554335 -15.3552 0.074729 -2.25224 -0.0847809 0.275085 0.681083 19.6735 12.0794 -0.0 0.0 -0.0 10.1644 19.0911 -19.8348 -20.3141 31.4113 -61.8161 1.48059 36.2555 -0.484749 -1.49682 0.0551386 -0.183188 -3.02355 -9.25584 15.823 0.0 0.0 0.0 37.0757 -45.4579 4.46054 -15.6918 0.322063 2.37903 -8.26152 29.195 1.31201 -9.18342 0.0 0.0 -0.0 0.0 -0.0 10.8194 1.21769 6.06332 -22.373 -0.259907 -3.4017 29.4987 -26.7262 4.09276 17.3848 -0.0 -0.0 0.0 0.0 0.0 
